<svg xmlns="http://www.w3.org/2000/svg" width="149" height="149" viewBox="0 0 149 149" version="1.1">
	<path d="M 0 74.506 L 0 149.013 74.750 148.756 L 149.500 148.500 149.756 74.250 L 150.013 0 75.006 0 L 0 0 0 74.506 M 0.475 75 C 0.475 115.975, 0.599 132.738, 0.750 112.250 C 0.901 91.762, 0.901 58.238, 0.750 37.750 C 0.599 17.262, 0.475 34.025, 0.475 75 M 75.302 43.103 C 68.273 45.805, 60.741 52.790, 57.300 59.797 C 54.863 64.761, 54.500 66.667, 54.500 74.500 C 54.500 82.333, 54.863 84.239, 57.300 89.203 C 67.549 110.074, 95.549 114.611, 112.080 98.080 C 125.568 84.592, 125.568 64.408, 112.080 50.920 C 104.951 43.791, 98.004 40.978, 87.712 41.052 C 83.012 41.086, 78.689 41.800, 75.302 43.103 M 80.803 47.351 C 67.779 50.991, 60 61.245, 60 74.772 C 60 104.151, 100.264 113.185, 113.433 86.759 C 116.687 80.229, 116.976 69.746, 114.078 63.363 C 108.361 50.774, 93.737 43.736, 80.803 47.351 M 42.569 49.681 C 41.582 52.252, 44.582 54.003, 49.941 53.985 C 55.357 53.966, 57.326 52.937, 56.838 50.380 C 56.537 48.803, 55.413 48.453, 49.863 48.207 C 44.295 47.961, 43.139 48.194, 42.569 49.681 M 85.709 51.624 C 85.319 52.014, 85 57.533, 85 63.888 L 85 75.442 90.719 81.221 C 96.798 87.364, 98 87.909, 100.043 85.449 C 101.139 84.128, 100.568 83.125, 96.200 78.699 L 91.069 73.500 90.785 62.500 C 90.521 52.298, 90.352 51.479, 88.459 51.208 C 87.336 51.047, 86.099 51.235, 85.709 51.624 M 32.306 61.645 C 31.267 64.351, 34.793 66, 41.620 66 C 48.184 66, 51.440 64.311, 50.351 61.471 C 49.479 59.199, 33.184 59.356, 32.306 61.645 M 28 74.500 L 28 77.072 37.750 76.786 C 46.738 76.522, 47.500 76.344, 47.500 74.500 C 47.500 72.656, 46.738 72.478, 37.750 72.214 L 28 71.928 28 74.500 M 33.529 84.355 C 32.394 85.185, 31.920 86.348, 32.306 87.355 C 32.823 88.701, 34.467 89, 41.362 89 C 50.308 89, 52.587 87.730, 49.386 84.529 C 47.411 82.554, 36.161 82.431, 33.529 84.355 M 43.637 96.276 C 42.521 97.092, 42.136 98.190, 42.569 99.319 C 43.139 100.806, 44.295 101.039, 49.863 100.793 C 55.413 100.547, 56.537 100.197, 56.838 98.620 C 57.035 97.586, 56.590 96.355, 55.848 95.885 C 53.785 94.578, 45.601 94.840, 43.637 96.276" stroke="none" fill="black" fill-rule="evenodd"/>
</svg>